<?xml version="1.0" encoding="UTF-8" standalone="no"?>
<!-- Created with Inkscape (http://www.inkscape.org/) -->

<svg
   width="100mm"
   height="100.07536mm"
   viewBox="0 0 100 100.07536"
   version="1.1"
   id="svg1"
   xml:space="preserve"
   xmlns:xlink="http://www.w3.org/1999/xlink"
   xmlns="http://www.w3.org/2000/svg"
   xmlns:svg="http://www.w3.org/2000/svg"><defs
     id="defs1"><linearGradient
       id="linearGradient15"><stop
         style="stop-color:#ff00ff;stop-opacity:1;"
         offset="0.26872247"
         id="stop16" /><stop
         style="stop-color:#148fcf;stop-opacity:1;"
         offset="0.66079295"
         id="stop17" /></linearGradient><linearGradient
       xlink:href="#linearGradient15"
       id="linearGradient22"
       gradientUnits="userSpaceOnUse"
       x1="56.226482"
       y1="98.310104"
       x2="148.67247"
       y2="191.10104" /><linearGradient
       xlink:href="#linearGradient15"
       id="linearGradient23"
       gradientUnits="userSpaceOnUse"
       x1="56.226482"
       y1="98.310104"
       x2="148.67247"
       y2="191.10104" /><linearGradient
       xlink:href="#linearGradient15"
       id="linearGradient24"
       gradientUnits="userSpaceOnUse"
       x1="56.226482"
       y1="98.310104"
       x2="148.67247"
       y2="191.10104" /><linearGradient
       xlink:href="#linearGradient15"
       id="linearGradient25"
       gradientUnits="userSpaceOnUse"
       x1="56.226482"
       y1="98.310104"
       x2="148.67247"
       y2="191.10104" /><linearGradient
       xlink:href="#linearGradient15"
       id="linearGradient26"
       gradientUnits="userSpaceOnUse"
       x1="56.226482"
       y1="98.310104"
       x2="148.67247"
       y2="191.10104" /></defs><g
     id="layer1"
     transform="translate(-55.714862,-83.365297)"><g
       id="g1"
       style="opacity:1;fill:url(#linearGradient22)"
       transform="matrix(1.0550263,0,0,1.0550263,-2.701855,-19.508373)"><path
         style="fill:url(#linearGradient23);fill-opacity:1"
         d="m 97.244915,192.16675 c -7.038117,-0.86018 -13.833733,-3.21579 -19.578113,-6.78648 -7.19893,-4.47483 -13.572994,-11.50772 -17.395561,-19.19357 -2.019323,-4.06015 -3.764401,-9.46715 -4.269383,-13.22837 -0.0923,-0.6875 -0.229153,-1.50693 -0.304109,-1.82096 l -0.136285,-0.57096 2.822569,0.071 2.822569,0.071 0.439653,2.25 c 1.177443,6.02576 3.722728,11.82039 7.406331,16.86134 0.759058,1.03876 2.744106,3.24313 4.411217,4.8986 6.275449,6.23161 13.696297,10.03409 22.342475,11.4484 l 3.311363,0.54166 0.0011,2.8125 c 0.0013,3.13868 0.173075,2.89609 -1.873863,2.64592 z m 8.875125,-2.64592 1.3e-4,-2.8125 2.93737,-0.41887 c 6.46592,-0.92203 11.97827,-3.15789 17.68738,-7.17416 3.24656,-2.28391 8.44882,-7.65387 10.69557,-11.04035 4.07735,-6.14569 6.39804,-12.99825 6.83389,-20.17912 l 0.17071,-2.8125 h 2.83741 2.83742 v 1.06403 c 0,2.03924 -0.75847,7.52741 -1.40284,10.15081 -2.89907,11.80281 -9.672,21.42189 -19.93775,28.31607 -5.88481,3.95208 -11.88521,6.2617 -19.08887,7.34752 -3.92935,0.59228 -3.57057,0.83756 -3.57042,-2.44093 z M 96.869915,174.0947 c -9.118437,-1.94573 -16.447974,-7.50958 -20.531744,-15.58565 -0.948934,-1.87661 -2.239904,-5.42238 -2.589832,-7.11322 l -0.168152,-0.8125 h 2.835698 2.835697 l 0.726741,2.14046 c 1.791543,5.27659 5.972805,10.35037 10.810866,13.11849 2.068665,1.1836 5.36482,2.40397 7.143226,2.64471 l 1.1875,0.16075 v 2.9678 c 0,1.63228 -0.02813,2.95987 -0.0625,2.9502 -0.03438,-0.01 -1.01875,-0.22164 -2.1875,-0.47104 z m 9.250005,-2.54743 c 0,-2.95785 0.001,-2.96394 0.59703,-2.96394 0.99528,0 4.82822,-1.20513 6.47711,-2.0365 5.00021,-2.52108 8.79332,-6.43962 11.18882,-11.55879 0.94347,-2.01621 1.98704,-5.47024 1.98704,-6.5768 v -0.57791 h -5.625 -5.625 v -2.87828 -2.87829 l 8.5625,0.0658 8.5625,0.0658 -0.033,3.25 c -0.0786,7.73084 -2.69304,14.22043 -8.00302,19.86497 -4.39772,4.6748 -10.11677,7.80953 -16.15144,8.85292 l -1.9375,0.33499 z M 55.369915,142.72113 c 0,-1.43367 0.728434,-6.52595 1.259033,-8.80154 2.234465,-9.58301 7.470818,-18.17622 15.065769,-24.72397 8.221431,-7.08785 17.438025,-10.847957 28.237698,-11.52018 l 2.687505,-0.167283 v 2.755383 2.75538 l -2.5625,0.17278 c -3.201554,0.21586 -7.831022,1.13105 -10.937505,2.1622 -9.77455,3.24451 -18.545591,10.83253 -23.672306,20.47943 -2.480517,4.66757 -4.041336,10.06929 -4.461522,15.44056 l -0.180664,2.30944 h -2.717754 -2.717754 z m 17.864695,-0.8253 c 0.504247,-4.92018 2.790234,-10.66491 5.870545,-14.75279 4.710454,-6.25125 11.635493,-10.34254 19.366707,-11.44181 4.029438,-0.57293 3.648058,-0.82078 3.648058,2.37077 v 2.73867 l -0.8125,0.11872 c -0.44688,0.0653 -1.655658,0.25428 -2.686177,0.41997 -8.373347,1.34624 -15.575457,7.35134 -18.495611,15.42158 -0.615208,1.70021 -1.505717,5.60069 -1.505717,6.59514 0,0.11948 -1.250606,0.21725 -2.779124,0.21725 h -2.779124 z"
         id="path4" /><path
         style="fill:url(#linearGradient24);fill-opacity:1"
         d="M 96.781467,192.06862 C 82.795019,190.44425 70.034374,182.19219 62.321459,169.784 c -2.372016,-3.81599 -5.511463,-11.36036 -5.422544,-13.03085 0.02679,-0.50329 0.03759,-0.50671 0.141709,-0.0448 0.326548,1.44864 1.175775,3.875 1.356255,3.875 0.114039,0 0.1367,0.19687 0.05036,0.4375 -0.08634,0.24062 -0.110936,0.37795 -0.05465,0.30518 0.05628,-0.0728 1.002332,-1.08527 2.102332,-2.24997 l 2,-2.11764 -2,1.87496 -2,1.87497 1.862358,-1.93107 1.862359,-1.93108 -0.409852,-1.69392 c -0.516252,-2.13369 -0.737932,-3.45033 -0.549136,-3.26154 0.08027,0.0803 0.316415,0.97207 0.524776,1.98178 2.049547,9.93202 8.470728,19.5635 16.959495,25.43848 5.551364,3.84203 12.596478,6.54454 18.6875,7.16852 l 1.6875,0.17288 v 2.84047 c 0,2.12324 -0.07891,2.83218 -0.3125,2.80762 -0.171875,-0.0181 -1.083552,-0.1224 -2.025948,-0.23185 z m 9.338453,-2.56162 v -2.85115 l 1.6875,-0.14379 c 11.2886,-0.96183 23.19582,-8.45013 29.99574,-18.86392 3.63209,-5.56239 6.08787,-12.85196 6.46487,-19.18981 0.21988,-3.69648 -0.076,-3.375 3.10665,-3.375 h 2.74524 l -0.002,0.8125 c -0.01,3.37803 -1.26617,10.53208 -2.48416,14.14761 -3.51943,10.44727 -10.2723,19.06347 -19.71368,25.15329 -2.46084,1.58728 -7.39535,3.9231 -10.29975,4.87554 -2.52333,0.82747 -7.34833,1.85942 -9.9375,2.12538 l -1.5625,0.16051 z m -9.875005,-15.57402 c -5.924795,-1.41677 -10.692005,-4.13625 -14.903318,-8.50168 -3.656298,-3.7901 -6.264474,-8.67027 -7.567979,-14.16047 l -0.163229,-0.6875 h 2.827912 2.827912 l 0.315605,1.18001 c 0.448783,1.67795 2.040544,4.98102 3.30089,6.8497 1.376984,2.0416 4.165891,4.83051 6.207499,6.20749 2.791544,1.88279 5.455344,2.98526 9.342208,3.86646 l 0.6875,0.15586 v 2.74524 2.74524 l -0.6875,-0.0208 c -0.378125,-0.0115 -1.3625,-0.18224 -2.1875,-0.37952 z m 9.875005,-2.34489 v -2.74524 l 0.6875,-0.15586 c 2.82116,-0.6396 3.99256,-1.03396 6.1875,-2.08311 4.19315,-2.00426 7.59322,-5.02101 9.98621,-8.86042 1.80704,-2.89927 3.38879,-7.21147 3.38879,-9.2386 v -0.67153 h -5.625 -5.625 v -2.75 -2.75 h 8.625 8.625 v 1.47351 c 0,4.83996 -1.1109,10.02049 -2.98099,13.90149 -3.99065,8.2818 -11.3614,14.22932 -20.00307,16.14065 -3.51014,0.77636 -3.26594,0.94541 -3.26594,-2.26089 z M 73.271365,142.02083 c 0.09695,-0.85938 0.267193,-1.84375 0.378313,-2.1875 0.200319,-0.61969 0.101331,0.88256 -0.177088,2.6875 l -0.125332,0.8125 h 1.185149 c 0.942036,0 1.341003,-0.14103 1.94492,-0.6875 0.708711,-0.6413 0.72691,-0.6455 0.270797,-0.0625 -0.268936,0.34375 0.0297,0.13572 0.663633,-0.46229 0.98909,-0.93305 1.212488,-1.33367 1.574698,-2.82394 1.62132,-6.67071 6.69689,-12.96944 13.019664,-16.15726 1.687088,-0.8506 5.198712,-2.05651 5.988565,-2.05651 0.302256,0 1.205359,-0.69706 2.194436,-1.69378 1.55026,-1.56223 1.6808,-1.7771 1.6808,-2.76684 0,-0.9018 -0.0698,-1.0536 -0.4375,-0.95104 -0.24063,0.0671 -1.3375,0.181 -2.437505,0.25306 -2.214564,0.14509 -1.182563,-0.15029 1.562505,-0.44722 l 1.5625,-0.16901 v 2.72691 2.72691 l -2.312505,0.3128 c -5.590851,0.75624 -10.216995,3.01508 -14.073814,6.87189 -3.802243,3.80225 -6.336459,8.9545 -6.994343,14.22002 l -0.176955,1.4163 h -2.733608 -2.733608 z"
         id="path3" /><path
         style="fill:url(#linearGradient25);fill-opacity:1"
         d="m 96.494915,191.92564 c -5.042227,-0.59587 -10.377534,-2.21837 -15.1476,-4.60648 -2.642487,-1.32295 -7.318663,-4.35612 -8.1024,-5.25558 -0.29983,-0.3441 -0.07053,-0.23479 0.572759,0.27305 l 1.072759,0.84687 1.802241,-1.81799 1.802241,-1.81799 -0.869815,-0.6696 c -0.478398,-0.36827 -1.265898,-1.04382 -1.75,-1.50122 -0.484102,-0.45739 -0.205185,-0.29673 0.619815,0.35703 5.913331,4.68592 13.871295,8.0475 20.709457,8.74802 0.940202,0.0963 1.759989,0.30681 1.82175,0.46775 0.06176,0.16095 0.08,1.41289 0.04054,2.78211 l -0.07175,2.48947 z m 9.625005,-2.30713 v -2.74545 l 0.6875,-0.13164 c 0.37812,-0.0724 1.30625,-0.20549 2.0625,-0.29577 3.92152,-0.46812 9.58587,-2.29886 13.14479,-4.24845 11.25112,-6.16343 19.21287,-16.7401 21.61269,-28.71107 0.38475,-1.91926 0.97435,-6.81008 0.99038,-8.2153 10e-4,-0.10313 1.24737,-0.1875 2.76932,-0.1875 h 2.76718 l -0.16573,2.0625 c -0.88149,10.97058 -3.98063,19.37217 -9.9791,27.05272 -2.11504,2.70814 -7.02247,7.39274 -9.83119,9.38478 -6.96109,4.93704 -13.39113,7.36125 -22.87084,8.62263 l -1.1875,0.158 z m -34.268926,-8.72268 -0.606079,-0.6875 0.6875,0.60608 c 0.642572,0.56647 0.802147,0.76892 0.606079,0.76892 -0.04478,0 -0.354157,-0.30938 -0.6875,-0.6875 z m 25.018921,-6.85395 c -1.767983,-0.37387 -4.735259,-1.36068 -6.579269,-2.18803 -1.632986,-0.73268 -5.170731,-2.87922 -5.170731,-3.13737 0,-0.0698 0.601175,0.25763 1.335943,0.72765 l 1.335944,0.85459 1.801761,-1.81386 1.801762,-1.81387 -1.387705,-0.92138 c -0.763238,-0.50677 -1.387705,-0.98189 -1.387705,-1.05585 0,-0.0739 0.534375,0.23325 1.1875,0.68266 1.620086,1.11478 5.033237,2.54716 7.375,3.09504 l 1.9375,0.45329 v 2.70429 c 0,3.06103 0.134274,2.91704 -2.25,2.41284 z m 9.250005,-2.39813 v -2.68958 l 2.10059,-0.54303 c 4.61827,-1.19387 7.90567,-3.03547 11.22739,-6.28958 3.7154,-3.63978 6.09857,-8.21615 7.01755,-13.47573 l 0.14197,-0.8125 h -5.74375 -5.74375 v -2.75 -2.75 h 8.53546 8.53546 l -0.14309,3.9375 c -0.15579,4.28691 -0.68573,6.81464 -2.18247,10.40998 -3.08714,7.41564 -10.03939,13.83603 -17.74536,16.38784 -1.49792,0.49603 -4.95416,1.26453 -5.6875,1.26464 -0.23064,3e-5 -0.3125,-0.70452 -0.3125,-2.68954 z m -21.781894,-3.49792 c -0.310967,-0.39652 -0.302125,-0.40536 0.09439,-0.0944 0.240625,0.18871 0.4375,0.38559 0.4375,0.4375 0,0.20576 -0.205296,0.0733 -0.531889,-0.34311 z m -1.616864,-1.375 -0.476247,-0.5625 0.5625,0.47625 c 0.528611,0.44755 0.67631,0.64875 0.476247,0.64875 -0.04744,0 -0.300564,-0.25313 -0.5625,-0.5625 z m 4,-3.5 -0.476247,-0.5625 0.5625,0.47625 c 0.528611,0.44755 0.67631,0.64875 0.476247,0.64875 -0.04744,0 -0.300564,-0.25313 -0.5625,-0.5625 z"
         id="path2" /><path
         style="fill:url(#linearGradient26);fill-opacity:1"
         d="m 106.11992,189.60018 c 0,-1.52177 0.0367,-2.76685 0.0815,-2.76685 0.0448,0 1.26351,-0.16593 2.70821,-0.36873 3.06617,-0.43041 7.85668,-1.76133 10.29644,-2.86059 0.94112,-0.42404 1.83038,-0.69728 1.97613,-0.6072 0.1463,0.0904 0.19235,0.0462 0.1028,-0.0987 -0.1947,-0.31503 0.51889,-0.63515 0.89612,-0.40201 0.14896,0.0921 0.19354,0.0471 0.10129,-0.10217 -0.20149,-0.32602 2.03401,-1.62323 2.40364,-1.39478 0.14363,0.0888 0.19533,0.0549 0.1149,-0.0752 -0.0804,-0.13014 0.42632,-0.62565 1.12612,-1.10113 0.69981,-0.47548 1.66164,-1.17223 2.1374,-1.54835 0.47577,-0.37612 0.96691,-0.62088 1.09144,-0.54392 0.12453,0.077 0.1955,0.04 0.15772,-0.0822 -0.0378,-0.12216 0.9187,-1.15813 2.12552,-2.30216 1.20682,-1.14402 2.88499,-2.93681 3.72926,-3.98397 0.84428,-1.04716 1.63712,-1.87302 1.76187,-1.83524 0.12475,0.0378 0.16819,-0.0262 0.0965,-0.1421 -0.18954,-0.30668 1.71897,-3.08882 1.96546,-2.86516 0.1143,0.10371 0.12833,0.0503 0.0312,-0.11877 -0.23748,-0.41317 0.29966,-1.3761 0.64765,-1.16104 0.15822,0.0978 0.20588,0.0571 0.11164,-0.0954 -0.23314,-0.37724 0.087,-1.09083 0.40201,-0.89613 0.14434,0.0892 0.18966,0.0445 0.10073,-0.0994 -0.0889,-0.1439 0.22164,-1.10284 0.69018,-2.13098 1.60845,-3.52952 2.96874,-8.75037 3.37241,-12.94346 0.16204,-1.68315 0.21069,-1.8543 0.23779,-0.83642 0.078,2.92887 -1.32083,9.01918 -2.95171,12.85169 -0.42032,0.98775 -0.76422,1.86705 -0.76422,1.954 0,0.23665 7.24225,-7.01261 7.53592,-7.54321 0.32813,-0.59286 1.15376,-6.03437 1.25816,-8.29223 l 0.0809,-1.75 -2.41896,-0.0713 c -2.34679,-0.0692 -2.42222,-0.0543 -2.52845,0.5 -0.096,0.50071 -0.11371,0.48636 -0.14355,-0.11617 l -0.034,-0.6875 h 2.76513 2.76514 l -0.15683,1.8125 c -0.68366,7.90121 -1.98621,13.06301 -4.74721,18.8125 -4.88322,10.16874 -13.91581,18.71218 -24.37623,23.05616 -3.75668,1.56007 -8.66447,2.85056 -12.125,3.18826 -0.9625,0.0939 -1.94688,0.22556 -2.1875,0.29252 -0.39765,0.11066 -0.4375,-0.13029 -0.4375,-2.64509 z m 6.02276,1.48803 c 1.0002,-0.2564 1.62699,-0.77814 4.875,-4.05795 2.04998,-2.07005 3.55849,-3.69978 3.35224,-3.62163 -0.20625,0.0782 -1.35412,0.53352 -2.55081,1.01191 -2.39893,0.959 -6.49823,2.01853 -8.82419,2.28075 -2.82289,0.31823 -2.625,0.10286 -2.625,2.85691 v 2.42066 l 2.3125,-0.29821 c 1.27187,-0.16402 2.82899,-0.43062 3.46026,-0.59244 z m -14.194007,0.81203 0.953758,-0.099 -0.07876,-2.48449 c -0.04332,-1.36646 0.0056,-2.48424 0.108742,-2.48394 0.103125,3e-4 0.1875,1.1818 0.1875,2.62555 v 2.625 l -1.0625,-0.042 -1.0625,-0.042 z m -2.891258,-0.24335 c 0.309375,-0.0596 0.815625,-0.0596 1.125,0 0.309375,0.0596 0.05625,0.10835 -0.5625,0.10835 -0.61875,0 -0.871875,-0.0488 -0.5625,-0.10835 z m -1.234375,-0.24434 c 0.180469,-0.0722 0.396094,-0.0633 0.479167,0.0197 0.08307,0.0831 -0.06458,0.14216 -0.328125,0.1313 -0.291236,-0.012 -0.350475,-0.0712 -0.151042,-0.15104 z m -1,-0.25 c 0.180469,-0.0722 0.396094,-0.0633 0.479167,0.0197 0.08307,0.0831 -0.06458,0.14216 -0.328125,0.1313 -0.291236,-0.012 -0.350475,-0.0712 -0.151042,-0.15104 z m 4.484375,-4.49479 c 0.171875,-0.0693 0.453125,-0.0693 0.625,0 0.171875,0.0694 0.03125,0.12609 -0.3125,0.12609 -0.34375,0 -0.484375,-0.0567 -0.3125,-0.12609 z m -1.620242,-0.25768 c 0.243242,-0.0634 0.580742,-0.0592 0.75,0.009 0.169258,0.0685 -0.02976,0.12035 -0.442258,0.11525 -0.4125,-0.005 -0.550984,-0.0611 -0.307742,-0.12451 z m 10.472747,-13.01425 c 0.0384,-0.9007 0.0439,-0.90621 0.13969,-0.14051 0.06,0.47936 0.26819,0.84144 0.52249,0.9085 0.30043,0.0792 0.26,0.1199 -0.13968,0.14051 -0.49505,0.0255 -0.55771,-0.0834 -0.5225,-0.9085 z m 1.66312,0.51672 c 0.18047,-0.0722 0.39609,-0.0633 0.47917,0.0197 0.0831,0.0831 -0.0646,0.14216 -0.32813,0.1313 -0.29123,-0.012 -0.35047,-0.0712 -0.15104,-0.15104 z m 1.25,-0.25 c 0.18047,-0.0722 0.39609,-0.0633 0.47917,0.0197 0.0831,0.0831 -0.0646,0.14216 -0.32813,0.1313 -0.29123,-0.012 -0.35047,-0.0712 -0.15104,-0.15104 z m 2.75,-0.75 c 0.18047,-0.0722 0.39609,-0.0633 0.47917,0.0197 0.0831,0.0831 -0.0646,0.14216 -0.32813,0.1313 -0.29123,-0.012 -0.35047,-0.0712 -0.15104,-0.15104 z m 1.04688,-0.32922 c 0.20625,-0.13329 0.4875,-0.24235 0.625,-0.24235 0.1375,0 0.0813,0.10906 -0.125,0.24235 -0.20625,0.13329 -0.4875,0.24234 -0.625,0.24234 -0.1375,0 -0.0812,-0.10905 0.125,-0.24234 z m 1.5,-0.625 c 0.34375,-0.19651 0.7375,-0.35728 0.875,-0.35728 0.1375,0 -0.0312,0.16077 -0.375,0.35728 -0.34375,0.1965 -0.7375,0.35728 -0.875,0.35728 -0.1375,0 0.0312,-0.16078 0.375,-0.35728 z m 1.43333,-0.65602 c 0.16958,-0.17086 0.37131,-0.24767 0.44828,-0.1707 0.077,0.077 -0.0618,0.21676 -0.30833,0.31065 -0.3563,0.13567 -0.38502,0.10695 -0.13995,-0.13995 z m 0.83218,-0.29957 c 0.0773,-0.0873 0.86479,-0.61465 1.75,-1.17181 0.88522,-0.55717 1.28658,-0.74143 0.89193,-0.40946 -0.67213,0.56536 -2.94875,1.92799 -2.64193,1.58127 z m 6.13382,-4.79441 c 1.52588,-1.5125 3.13868,-3.2 3.584,-3.75 0.54456,-0.67258 0.63494,-0.73623 0.27604,-0.19438 -1.00425,1.51614 -4.06294,4.6887 -5.90752,6.12744 -0.39977,0.31182 0.52159,-0.67056 2.04748,-2.18306 z m -4.77433,-2.625 c 0.24887,-0.275 0.50874,-0.5 0.57749,-0.5 0.0687,0 -0.0786,0.225 -0.32749,0.5 -0.24888,0.275 -0.50875,0.5 -0.5775,0.5 -0.0688,0 0.0786,-0.225 0.3275,-0.5 z m 1.75,-1.5 c 0.24887,-0.275 0.50874,-0.5 0.57749,-0.5 0.0687,0 -0.0786,0.225 -0.32749,0.5 -0.24888,0.275 -0.50875,0.5 -0.5775,0.5 -0.0688,0 0.0786,-0.225 0.3275,-0.5 z m 1.375,-1.59439 c 0,-0.0519 0.19687,-0.24879 0.4375,-0.4375 0.39651,-0.31097 0.40535,-0.30213 0.0944,0.0944 -0.32659,0.41644 -0.53188,0.54887 -0.53188,0.34311 z m 6.75,-0.40561 c 0.14717,-0.275 0.32384,-0.5 0.39259,-0.5 0.0687,0 0.005,0.225 -0.14259,0.5 -0.14718,0.275 -0.32385,0.5 -0.3926,0.5 -0.0688,0 -0.005,-0.225 0.1426,-0.5 z m 1.02007,-1.75 c 0.36445,-0.76526 0.47993,-0.90709 0.47993,-0.58945 0,0.13414 -0.17496,0.46226 -0.3888,0.72917 -0.36659,0.45757 -0.37179,0.4496 -0.0911,-0.13972 z m 0.73758,-1.625 c 0,-0.1375 0.10906,-0.41875 0.24235,-0.625 0.13328,-0.20625 0.24234,-0.2625 0.24234,-0.125 0,0.1375 -0.10906,0.41875 -0.24234,0.625 -0.13329,0.20625 -0.24235,0.2625 -0.24235,0.125 z m 0.76208,-2.02084 c 0.012,-0.29123 0.0712,-0.35047 0.15104,-0.15104 0.0722,0.18047 0.0633,0.3961 -0.0197,0.47917 -0.0831,0.0831 -0.14216,-0.0646 -0.13131,-0.32813 z m 0.75,-2.75 c 0.012,-0.29123 0.0712,-0.35047 0.15104,-0.15104 0.0722,0.18047 0.0633,0.3961 -0.0197,0.47917 -0.0831,0.0831 -0.14216,-0.0646 -0.13131,-0.32813 z m 0.25,-1 c 0.012,-0.29123 0.0712,-0.35047 0.15104,-0.15104 0.0722,0.18047 0.0633,0.3961 -0.0197,0.47917 -0.0831,0.0831 -0.14216,-0.0646 -0.13131,-0.32813 z M 119.43242,147.661 c 0.24062,-0.0629 0.63437,-0.0629 0.875,0 0.24062,0.0629 0.0438,0.11433 -0.4375,0.11433 -0.48125,0 -0.67813,-0.0514 -0.4375,-0.11433 z m 12.48623,-0.45267 c 0.005,-0.4125 0.0611,-0.55099 0.12451,-0.30774 0.0634,0.24324 0.0592,0.58074 -0.009,0.75 -0.0685,0.16925 -0.12034,-0.0298 -0.11525,-0.44226 z"
         id="path1" /></g></g></svg>
